HIERARCHY
ROOT Hips
{
  OFFSET 48.0276 81.5603 -18.4323
  CHANNELS 6 Xposition Yposition Zposition Zrotation Xrotation Yrotation
  JOINT Chest
  {
    OFFSET 1.23234e-007 14.8421 1.27319e-009
    CHANNELS 6 Xposition Yposition Zposition Zrotation Xrotation Yrotation
    JOINT RightCollar
    {
      OFFSET -6.11406 27.2248 4.23427
      CHANNELS 6 Xposition Yposition Zposition Zrotation Xrotation Yrotation
      JOINT RightUpArm
      {
        OFFSET -10.4566 2.3285 -0.910794
        CHANNELS 6 Xposition Yposition Zposition Zrotation Xrotation Yrotation
        JOINT RightLowArm
        {
          OFFSET -3.86856 -25.191 -1.74633
          CHANNELS 6 Xposition Yposition Zposition Zrotation Xrotation Yrotation
          JOINT RightHand
          {
            OFFSET -1.04759 -20.6242 1.75213
            CHANNELS 6 Xposition Yposition Zposition Zrotation Xrotation Yrotation
            End Site
            {
              OFFSET -2.03487e-006 -9.50367 -4.31372e-006
            }
          }
        }
      }
    }
    JOINT LeftCollar
    {
      OFFSET 6.64893 27.3161 3.27471
      CHANNELS 6 Xposition Yposition Zposition Zrotation Xrotation Yrotation
      JOINT LeftUpArm
      {
        OFFSET 10.8584 2.41798 -0.945791
        CHANNELS 6 Xposition Yposition Zposition Zrotation Xrotation Yrotation
        JOINT LeftLowArm
        {
          OFFSET 3.77631 -24.5904 -1.70468
          CHANNELS 6 Xposition Yposition Zposition Zrotation Xrotation Yrotation
          JOINT LeftHand
          {
            OFFSET 1.01026 -21.1231 1.74131
            CHANNELS 6 Xposition Yposition Zposition Zrotation Xrotation Yrotation
            End Site
            {
              OFFSET 1.17583e-006 -9.81266 -2.89439e-008
            }
          }
        }
      }
    }
    JOINT Neck
    {
      OFFSET 0.51659 29.8236 6.51843
      CHANNELS 6 Xposition Yposition Zposition Zrotation Xrotation Yrotation
      JOINT Head
      {
        OFFSET 1.16803e-007 7.47049 6.44171e-007
        CHANNELS 6 Xposition Yposition Zposition Zrotation Xrotation Yrotation
        End Site
        {
          OFFSET -4.32676e-008 16.2908 2.16786e-007
        }
      }
    }
  }
  JOINT LeftUpLeg
  {
    OFFSET 9 -3.38008e-006 -5.22996e-009
    CHANNELS 6 Xposition Yposition Zposition Zrotation Xrotation Yrotation
    JOINT LeftLowLeg
    {
      OFFSET -0.575 -51.431 3.90177
      CHANNELS 6 Xposition Yposition Zposition Zrotation Xrotation Yrotation
      JOINT LeftFoot
      {
        OFFSET 2.13082e-007 -43.5882 -3.90177
        CHANNELS 6 Xposition Yposition Zposition Zrotation Xrotation Yrotation
        End Site
        {
          OFFSET 7.44796e-007 -6.93413 15.0046
        }
      }
    }
  }
  JOINT RightUpLeg
  {
    OFFSET -9 6.86154e-007 -3.19536e-009
    CHANNELS 6 Xposition Yposition Zposition Zrotation Xrotation Yrotation
    JOINT RightLowLeg
    {
      OFFSET 0.575 -51.4311 3.90177
      CHANNELS 6 Xposition Yposition Zposition Zrotation Xrotation Yrotation
      JOINT RightFoot
      {
        OFFSET -7.46079e-007 -43.5882 -3.90177
        CHANNELS 6 Xposition Yposition Zposition Zrotation Xrotation Yrotation
        End Site
        {
          OFFSET 4.66716e-007 -6.93413 15.0046
        }
      }
    }
  }
}
MOTION
Frames:	8
Frame Time:	0.0333333
48.0276 81.5603 -18.4323 0.286723 -4.92188 -1.54648 1.23234e-007 14.8421 1.27319e-009 -2.91025 2.89819 0.329773 -6.11406 27.2248 4.23427 -1.96452 7.32629 3.42623 -10.4566 2.3285 -0.910794 -15.519 -76.7968 40.1805 -3.86856 -25.191 -1.74633 -13.4984 -4.4293 68.3062 -1.04759 -20.6242 1.75213 -6.78505 -0.926044 -0.653224 6.64893 27.3161 3.27471 -2.94784 5.93879 -4.20517 10.8584 2.41798 -0.945791 42.6342 -72.6127 -19.6967 3.77631 -24.5904 -1.70468 4.38775 -17.8716 -47.0515 1.01026 -21.1231 1.74131 7.54516 -1.38816 0.595979 0.51659 29.8236 6.51843 1.22656 -6.70383 -0.986772 1.16803e-007 7.47049 6.44171e-007 -1.38432 14.7794 0.224285 9 -3.38008e-006 -5.22996e-009 18.8286 -23.397 17.7906 -0.575 -51.431 3.90177 1.75783 63.7468 -35.7376 2.13082e-007 -43.5882 -3.90177 23.8605 -22.5514 2.34769 -9 6.86154e-007 -3.19536e-009 -23.2342 -25.3297 -19.0426 0.575 -51.4311 3.90177 -25.1882 58.9983 42.7073 -7.46079e-007 -43.5882 -3.90177 -4.59583 -20.6132 -0.121773 
48.0202 81.5406 -18.4036 0.32367 -4.87436 -1.52935 1.23234e-007 14.8421 1.27319e-009 -2.91866 2.84853 0.243085 -6.11406 27.2248 4.23427 -1.96452 7.32629 3.42623 -10.4566 2.3285 -0.910794 -17.5004 -76.8152 38.7124 -3.86856 -25.191 -1.74633 -13.4607 -4.52369 68.2666 -1.04759 -20.6242 1.75213 -6.73626 -0.680368 -0.648911 6.64893 27.3161 3.27471 -2.94784 5.93879 -4.20517 10.8584 2.41798 -0.945791 44.1082 -72.2415 -18.675 3.77631 -24.5904 -1.70468 4.3212 -18.3459 -46.4537 1.01026 -21.1231 1.74131 7.31588 -1.50416 0.564531 0.51659 29.8236 6.51843 1.20723 -6.9259 -0.948502 1.16803e-007 7.47049 6.44171e-007 -1.35381 14.846 0.241596 9 -3.38008e-006 -5.22996e-009 18.8642 -23.4405 17.8716 -0.575 -51.431 3.90177 1.68672 63.758 -35.6945 2.13082e-007 -43.5882 -3.90177 23.772 -22.4568 2.31755 -9 6.86154e-007 -3.19536e-009 -23.2767 -25.3606 -19.0648 0.575 -51.4311 3.90177 -25.2241 59.0201 42.7103 -7.46079e-007 -43.5882 -3.90177 -4.5807 -20.7005 -0.122691 
48.0108 81.5568 -18.3954 0.354787 -4.81052 -1.54685 1.23234e-007 14.8421 1.27319e-009 -2.90805 2.75759 0.294367 -6.11406 27.2248 4.23427 -1.96452 7.32629 3.42623 -10.4566 2.3285 -0.910794 -19.8844 -76.7348 36.9555 -3.86856 -25.191 -1.74633 -13.5849 -4.46774 67.9099 -1.04759 -20.6242 1.75213 -6.50457 -0.649278 -0.61945 6.64893 27.3161 3.27471 -2.94784 5.93879 -4.20517 10.8584 2.41798 -0.945791 44.7792 -72.1868 -18.0505 3.77631 -24.5904 -1.70468 4.48366 -18.0686 -46.6028 1.01026 -21.1231 1.74131 7.26776 -1.76293 0.558124 0.51659 29.8236 6.51843 1.24257 -6.75596 -0.947321 1.16803e-007 7.47049 6.44171e-007 -1.34092 14.5234 0.248827 9 -3.38008e-006 -5.22996e-009 18.9451 -23.4629 18.0436 -0.575 -51.431 3.90177 1.56168 63.6988 -35.5969 2.13082e-007 -43.5882 -3.90177 23.6509 -22.3022 2.27107 -9 6.86154e-007 -3.19536e-009 -23.3012 -25.4408 -19.0685 0.575 -51.4311 3.90177 -25.2502 59.0395 42.7605 -7.46079e-007 -43.5882 -3.90177 -4.58791 -20.6195 -0.121193 
48.0021 81.5924 -18.3904 0.372521 -4.76865 -1.50925 1.23234e-007 14.8421 1.27319e-009 -2.93242 2.67418 0.237758 -6.11406 27.2248 4.23427 -1.96452 7.32629 3.42623 -10.4566 2.3285 -0.910794 -21.5246 -76.6391 35.5584 -3.86856 -25.191 -1.74633 -13.7952 -4.51763 67.7285 -1.04759 -20.6242 1.75213 -6.24185 -0.766289 -0.584662 6.64893 27.3161 3.27471 -2.94784 5.93879 -4.20517 10.8584 2.41798 -0.945791 45.3837 -72.2618 -17.4053 3.77631 -24.5904 -1.70468 4.80547 -17.4779 -47.0589 1.01026 -21.1231 1.74131 7.18263 -1.78255 0.546221 0.51659 29.8236 6.51843 1.30893 -6.50985 -1.05108 1.16803e-007 7.47049 6.44171e-007 -1.29655 14.1157 0.158067 9 -3.38008e-006 -5.22996e-009 18.9596 -23.4588 18.1091 -0.575 -51.431 3.90177 1.49605 63.5969 -35.5753 2.13082e-007 -43.5882 -3.90177 23.6419 -22.288 2.26702 -9 6.86154e-007 -3.19536e-009 -23.3241 -25.4791 -19.0972 0.575 -51.4311 3.90177 -25.2608 59.0557 42.7721 -7.46079e-007 -43.5882 -3.90177 -4.59522 -20.4539 -0.117451 
47.9999 81.6162 -18.3758 0.408849 -4.68382 -1.50344 1.23234e-007 14.8421 1.27319e-009 -3.03981 2.57769 0.0600221 -6.11406 27.2248 4.23427 -1.96452 7.32629 3.42623 -10.4566 2.3285 -0.910794 -23.3957 -76.6585 33.7743 -3.86856 -25.191 -1.74633 -13.8021 -4.69776 67.9812 -1.04759 -20.6242 1.75213 -6.19078 -0.891979 -0.576659 6.64893 27.3161 3.27471 -2.94784 5.93879 -4.20517 10.8584 2.41798 -0.945791 47.5492 -72.0164 -15.2217 3.77631 -24.5904 -1.70468 4.65736 -17.672 -47.544 1.01026 -21.1231 1.74131 7.0936 -1.66485 0.533772 0.51659 29.8236 6.51843 1.41723 -6.74346 -1.11558 1.16803e-007 7.47049 6.44171e-007 -1.33339 14.082 0.133231 9 -3.38008e-006 -5.22996e-009 18.9395 -23.5142 18.1411 -0.575 -51.431 3.90177 1.43629 63.5561 -35.5509 2.13082e-007 -43.5882 -3.90177 23.5802 -22.2218 2.2463 -9 6.86154e-007 -3.19537e-009 -23.3386 -25.4615 -19.1022 0.575 -51.4311 3.90177 -25.1778 58.9139 42.7105 -7.46079e-007 -43.5882 -3.90177 -4.58242 -20.6632 -0.121838 
48.0115 81.6514 -18.3527 0.431662 -4.67587 -1.61088 1.23233e-007 14.8421 1.27319e-009 -2.99576 2.598 -0.00130155 -6.11406 27.2248 4.23427 -1.96452 7.32629 3.42623 -10.4566 2.3285 -0.910794 -25.2534 -76.739 32.318 -3.86856 -25.191 -1.74633 -13.7151 -4.76395 67.9974 -1.04759 -20.6242 1.75213 -6.48125 -0.634908 -0.616699 6.64893 27.3161 3.27471 -2.94784 5.93879 -4.20517 10.8584 2.41798 -0.945791 49.5067 -71.7524 -13.0617 3.77631 -24.5904 -1.70468 4.51432 -17.7719 -47.7649 1.01026 -21.1231 1.74131 7.16798 -1.75952 0.544077 0.51659 29.8236 6.51843 1.22698 -7.13458 -1.0216 1.16803e-007 7.47049 6.44171e-007 -1.2014 14.3192 0.124522 9 -3.38008e-006 -5.22996e-009 18.929 -23.4341 18.1979 -0.575 -51.431 3.90177 1.37584 63.4921 -35.4711 2.13082e-007 -43.5882 -3.90177 23.5256 -22.1563 2.22642 -9 6.86154e-007 -3.19537e-009 -23.2964 -25.4194 -19.0139 0.575 -51.4311 3.90177 -25.1248 58.7499 42.728 -7.46079e-007 -43.5882 -3.90177 -4.58544 -20.8265 -0.126507 
48.0153 81.7044 -18.3149 0.405541 -4.6487 -1.66475 1.23233e-007 14.8421 1.27319e-009 -2.84531 2.51678 -0.11787 -6.11406 27.2248 4.23427 -1.96452 7.32629 3.42623 -10.4566 2.3285 -0.910794 -26.3287 -76.7468 31.4322 -3.86856 -25.191 -1.74633 -13.7516 -4.78219 67.9985 -1.04759 -20.6242 1.75213 -6.19923 -1.01077 -0.573999 6.64893 27.3161 3.27471 -2.94784 5.93879 -4.20517 10.8584 2.41798 -0.945791 50.6662 -71.5743 -11.4631 3.77631 -24.5904 -1.70468 4.58041 -17.565 -48.2069 1.01026 -21.1231 1.74131 6.97262 -1.86991 0.516483 0.51659 29.8236 6.51843 0.991582 -7.13336 -0.91967 1.16803e-007 7.47049 6.44171e-007 -1.05178 14.2804 0.111334 9 -3.38008e-006 -5.22996e-009 18.9398 -23.3754 18.2205 -0.575 -51.431 3.90177 1.36749 63.4044 -35.4917 2.13082e-007 -43.5882 -3.90177 23.5345 -22.1582 2.22775 -9 6.86154e-007 -3.19537e-009 -23.2457 -25.3986 -19.0023 0.575 -51.4311 3.90177 -25.0437 58.6604 42.6724 -7.46079e-007 -43.5882 -3.90177 -4.5997 -20.7635 -0.126187 
48.0175 81.7602 -18.2684 0.323765 -4.55448 -1.66859 1.23233e-007 14.8421 1.27319e-009 -2.75725 2.31715 -0.276795 -6.11406 27.2248 4.23427 -1.96452 7.32629 3.42623 -10.4566 2.3285 -0.910794 -26.8086 -76.7375 30.7084 -3.86856 -25.191 -1.74633 -13.792 -4.67538 68.2642 -1.04759 -20.6242 1.75213 -5.78628 -1.21836 -0.519088 6.64893 27.3161 3.27471 -2.94784 5.93879 -4.20517 10.8584 2.41798 -0.945791 51.3715 -71.3807 -10.6937 3.77631 -24.5904 -1.70468 4.60092 -17.5383 -48.0693 1.01026 -21.1231 1.74131 6.9855 -1.79505 0.518367 0.51659 29.8236 6.51843 0.996405 -6.86121 -0.824465 1.16803e-007 7.47049 6.44171e-007 -1.01129 14.0465 0.192769 9 -3.38008e-006 -5.22996e-009 19.0148 -23.4117 18.2561 -0.575 -51.431 3.90177 1.38809 63.3539 -35.5037 2.13082e-007 -43.5882 -3.90177 23.5039 -22.1106 2.21432 -9 6.86154e-007 -3.19538e-009 -23.1777 -25.4144 -19.0408 0.575 -51.4311 3.90177 -24.9137 58.5915 42.5838 -7.46079e-007 -43.5882 -3.90177 -4.61033 -20.642 -0.12391 
